{
	"asset":{
		"generator":"Khronos glTF Blender I/O v4.3.47",
		"version":"2.0"
	},
	"extensionsUsed":[
		"KHR_materials_specular"
	],
	"scene":0,
	"scenes":[
		{
			"name":"Scene",
			"nodes":[
				0,
				1
			]
		}
	],
	"nodes":[
		{
			"mesh":0,
			"name":"MyLowPolyTerrain2",
			"scale":[
				0.5,
				1,
				0.5
			]
		},
		{
			"mesh":1,
			"name":"Cylinder",
			"scale":[
				-140.26913452148438,
				-140.26913452148438,
				-140.26913452148438
			],
			"translation":[
				10.689678192138672,
				20.85105323791504,
				-9.921920776367188
			]
		}
	],
	"materials":[
		{
			"doubleSided":true,
			"extensions":{
				"KHR_materials_specular":{
					"specularFactor":0
				}
			},
			"name":"Brush",
			"pbrMetallicRoughness":{
				"baseColorTexture":{
					"index":0
				},
				"metallicFactor":0
			}
		},
		{
			"doubleSided":true,
			"extensions":{
				"KHR_materials_specular":{
					"specularFactor":0
				}
			},
			"name":"Grass",
			"pbrMetallicRoughness":{
				"baseColorTexture":{
					"index":1
				},
				"metallicFactor":0
			}
		},
		{
			"doubleSided":true,
			"extensions":{
				"KHR_materials_specular":{
					"specularFactor":0
				}
			},
			"name":"Walls",
			"pbrMetallicRoughness":{
				"baseColorTexture":{
					"index":2
				},
				"metallicFactor":0
			}
		}
	],
	"meshes":[
		{
			"name":"Plane.012",
			"primitives":[
				{
					"attributes":{
						"POSITION":0,
						"NORMAL":1,
						"TEXCOORD_0":2
					},
					"indices":3,
					"material":0
				},
				{
					"attributes":{
						"POSITION":4,
						"NORMAL":5,
						"TEXCOORD_0":6
					},
					"indices":7,
					"material":1
				}
			]
		},
		{
			"name":"Cylinder",
			"primitives":[
				{
					"attributes":{
						"POSITION":8,
						"NORMAL":9,
						"TEXCOORD_0":10
					},
					"indices":11,
					"material":2
				}
			]
		}
	],
	"textures":[
		{
			"sampler":0,
			"source":0
		},
		{
			"sampler":0,
			"source":1
		},
		{
			"sampler":0,
			"source":2
		}
	],
	"images":[
		{
			"mimeType":"image/png",
			"name":"tex_brush_1",
			"uri":"textures/tex_brush_1.png"
		},
		{
			"mimeType":"image/png",
			"name":"tex_grass_1",
			"uri":"textures/tex_grass_1.png"
		},
		{
			"mimeType":"image/png",
			"name":"tex_stone_2",
			"uri":"textures/tex_stone_2.png"
		}
	],
	"accessors":[
		{
			"bufferView":0,
			"componentType":5126,
			"count":100,
			"max":[
				79.73701477050781,
				0.4262956380844116,
				207.8419189453125
			],
			"min":[
				-166.80804443359375,
				-4.019388198852539,
				-191.91995239257812
			],
			"type":"VEC3"
		},
		{
			"bufferView":1,
			"componentType":5126,
			"count":100,
			"type":"VEC3"
		},
		{
			"bufferView":2,
			"componentType":5126,
			"count":100,
			"type":"VEC2"
		},
		{
			"bufferView":3,
			"componentType":5123,
			"count":183,
			"type":"SCALAR"
		},
		{
			"bufferView":4,
			"componentType":5126,
			"count":204,
			"max":[
				247.3922576904297,
				16.213119506835938,
				208.77227783203125
			],
			"min":[
				-206.3516845703125,
				-4.019388198852539,
				-244.6410675048828
			],
			"type":"VEC3"
		},
		{
			"bufferView":5,
			"componentType":5126,
			"count":204,
			"type":"VEC3"
		},
		{
			"bufferView":6,
			"componentType":5126,
			"count":204,
			"type":"VEC2"
		},
		{
			"bufferView":7,
			"componentType":5123,
			"count":528,
			"type":"SCALAR"
		},
		{
			"bufferView":8,
			"componentType":5126,
			"count":96,
			"max":[
				0.7848101854324341,
				0.20396527647972107,
				0.7848100066184998
			],
			"min":[
				-0.7848102450370789,
				-0.2039651721715927,
				-0.7848103046417236
			],
			"type":"VEC3"
		},
		{
			"bufferView":9,
			"componentType":5126,
			"count":96,
			"type":"VEC3"
		},
		{
			"bufferView":10,
			"componentType":5126,
			"count":96,
			"type":"VEC2"
		},
		{
			"bufferView":11,
			"componentType":5123,
			"count":144,
			"type":"SCALAR"
		}
	],
	"bufferViews":[
		{
			"buffer":0,
			"byteLength":1200,
			"byteOffset":0,
			"target":34962
		},
		{
			"buffer":0,
			"byteLength":1200,
			"byteOffset":1200,
			"target":34962
		},
		{
			"buffer":0,
			"byteLength":800,
			"byteOffset":2400,
			"target":34962
		},
		{
			"buffer":0,
			"byteLength":366,
			"byteOffset":3200,
			"target":34963
		},
		{
			"buffer":0,
			"byteLength":2448,
			"byteOffset":3568,
			"target":34962
		},
		{
			"buffer":0,
			"byteLength":2448,
			"byteOffset":6016,
			"target":34962
		},
		{
			"buffer":0,
			"byteLength":1632,
			"byteOffset":8464,
			"target":34962
		},
		{
			"buffer":0,
			"byteLength":1056,
			"byteOffset":10096,
			"target":34963
		},
		{
			"buffer":0,
			"byteLength":1152,
			"byteOffset":11152,
			"target":34962
		},
		{
			"buffer":0,
			"byteLength":1152,
			"byteOffset":12304,
			"target":34962
		},
		{
			"buffer":0,
			"byteLength":768,
			"byteOffset":13456,
			"target":34962
		},
		{
			"buffer":0,
			"byteLength":288,
			"byteOffset":14224,
			"target":34963
		}
	],
	"samplers":[
		{
			"magFilter":9728,
			"minFilter":9984
		}
	],
	"buffers":[
		{
			"byteLength":14512,
			"uri":"sm_meda_terrain.bin"
		}
	]
}
