{
	"asset":{
		"generator":"Khronos glTF Blender I/O v4.3.47",
		"version":"2.0"
	},
	"extensionsUsed":[
		"KHR_materials_specular"
	],
	"scene":0,
	"scenes":[
		{
			"name":"Scene",
			"nodes":[
				0,
				1,
				2
			]
		}
	],
	"nodes":[
		{
			"mesh":0,
			"name":"MyLowPolyTerrain2",
			"scale":[
				0.5,
				1,
				0.5
			]
		},
		{
			"mesh":1,
			"name":"Cylinder",
			"scale":[
				0.5,
				1,
				0.5
			],
			"translation":[
				-0.5366841554641724,
				0,
				-0.6611312627792358
			]
		},
		{
			"mesh":2,
			"name":"Cube.003",
			"translation":[
				0,
				0.4906790554523468,
				0
			]
		}
	],
	"materials":[
		{
			"doubleSided":true,
			"extensions":{
				"KHR_materials_specular":{
					"specularFactor":0
				}
			},
			"name":"Brush",
			"pbrMetallicRoughness":{
				"baseColorTexture":{
					"index":0
				},
				"metallicFactor":0
			}
		},
		{
			"doubleSided":true,
			"extensions":{
				"KHR_materials_specular":{
					"specularFactor":0
				}
			},
			"name":"Grass",
			"pbrMetallicRoughness":{
				"baseColorTexture":{
					"index":1
				},
				"metallicFactor":0
			}
		},
		{
			"doubleSided":true,
			"extensions":{
				"KHR_materials_specular":{
					"specularFactor":0
				}
			},
			"name":"Walls",
			"pbrMetallicRoughness":{
				"baseColorTexture":{
					"index":2
				},
				"metallicFactor":0
			}
		}
	],
	"meshes":[
		{
			"name":"Plane.012",
			"primitives":[
				{
					"attributes":{
						"POSITION":0,
						"NORMAL":1,
						"TEXCOORD_0":2
					},
					"indices":3,
					"material":0
				},
				{
					"attributes":{
						"POSITION":4,
						"NORMAL":5,
						"TEXCOORD_0":6
					},
					"indices":7,
					"material":1
				}
			]
		},
		{
			"name":"Cylinder",
			"primitives":[
				{
					"attributes":{
						"POSITION":8,
						"NORMAL":9,
						"TEXCOORD_0":10
					},
					"indices":11,
					"material":2
				}
			]
		},
		{
			"name":"Cube.003",
			"primitives":[
				{
					"attributes":{
						"POSITION":12,
						"NORMAL":13,
						"TEXCOORD_0":14
					},
					"indices":15
				}
			]
		}
	],
	"textures":[
		{
			"sampler":0,
			"source":0
		},
		{
			"sampler":0,
			"source":1
		},
		{
			"sampler":0,
			"source":2
		}
	],
	"images":[
		{
			"mimeType":"image/png",
			"name":"tex_brush_1",
			"uri":"textures/tex_brush_1.png"
		},
		{
			"mimeType":"image/png",
			"name":"tex_grass_1",
			"uri":"textures/tex_grass_1.png"
		},
		{
			"mimeType":"image/png",
			"name":"tex_stone_2",
			"uri":"textures/tex_stone_2.png"
		}
	],
	"accessors":[
		{
			"bufferView":0,
			"componentType":5126,
			"count":119,
			"max":[
				4.894474506378174,
				0.7708651423454285,
				12.757872581481934
			],
			"min":[
				-10.239106178283691,
				-0.03052099049091339,
				-11.78055191040039
			],
			"type":"VEC3"
		},
		{
			"bufferView":1,
			"componentType":5126,
			"count":119,
			"type":"VEC3"
		},
		{
			"bufferView":2,
			"componentType":5126,
			"count":119,
			"type":"VEC2"
		},
		{
			"bufferView":3,
			"componentType":5123,
			"count":183,
			"type":"SCALAR"
		},
		{
			"bufferView":4,
			"componentType":5126,
			"count":303,
			"max":[
				15.185588836669922,
				2.8171658515930176,
				12.814982414245605
			],
			"min":[
				-12.666396141052246,
				0.06764393299818039,
				-15.01671028137207
			],
			"type":"VEC3"
		},
		{
			"bufferView":5,
			"componentType":5126,
			"count":303,
			"type":"VEC3"
		},
		{
			"bufferView":6,
			"componentType":5126,
			"count":303,
			"type":"VEC2"
		},
		{
			"bufferView":7,
			"componentType":5123,
			"count":528,
			"type":"SCALAR"
		},
		{
			"bufferView":8,
			"componentType":5126,
			"count":96,
			"max":[
				14.251246452331543,
				6.190411567687988,
				12.077877044677734
			],
			"min":[
				-11.665332794189453,
				-0.5450839996337891,
				-13.83870792388916
			],
			"type":"VEC3"
		},
		{
			"bufferView":9,
			"componentType":5126,
			"count":96,
			"type":"VEC3"
		},
		{
			"bufferView":10,
			"componentType":5126,
			"count":96,
			"type":"VEC2"
		},
		{
			"bufferView":11,
			"componentType":5123,
			"count":144,
			"type":"SCALAR"
		},
		{
			"bufferView":12,
			"componentType":5126,
			"count":24,
			"max":[
				0.5,
				0.5,
				0.5
			],
			"min":[
				-0.5,
				-0.5,
				-0.5
			],
			"type":"VEC3"
		},
		{
			"bufferView":13,
			"componentType":5126,
			"count":24,
			"type":"VEC3"
		},
		{
			"bufferView":14,
			"componentType":5126,
			"count":24,
			"type":"VEC2"
		},
		{
			"bufferView":15,
			"componentType":5123,
			"count":36,
			"type":"SCALAR"
		}
	],
	"bufferViews":[
		{
			"buffer":0,
			"byteLength":1428,
			"byteOffset":0,
			"target":34962
		},
		{
			"buffer":0,
			"byteLength":1428,
			"byteOffset":1428,
			"target":34962
		},
		{
			"buffer":0,
			"byteLength":952,
			"byteOffset":2856,
			"target":34962
		},
		{
			"buffer":0,
			"byteLength":366,
			"byteOffset":3808,
			"target":34963
		},
		{
			"buffer":0,
			"byteLength":3636,
			"byteOffset":4176,
			"target":34962
		},
		{
			"buffer":0,
			"byteLength":3636,
			"byteOffset":7812,
			"target":34962
		},
		{
			"buffer":0,
			"byteLength":2424,
			"byteOffset":11448,
			"target":34962
		},
		{
			"buffer":0,
			"byteLength":1056,
			"byteOffset":13872,
			"target":34963
		},
		{
			"buffer":0,
			"byteLength":1152,
			"byteOffset":14928,
			"target":34962
		},
		{
			"buffer":0,
			"byteLength":1152,
			"byteOffset":16080,
			"target":34962
		},
		{
			"buffer":0,
			"byteLength":768,
			"byteOffset":17232,
			"target":34962
		},
		{
			"buffer":0,
			"byteLength":288,
			"byteOffset":18000,
			"target":34963
		},
		{
			"buffer":0,
			"byteLength":288,
			"byteOffset":18288,
			"target":34962
		},
		{
			"buffer":0,
			"byteLength":288,
			"byteOffset":18576,
			"target":34962
		},
		{
			"buffer":0,
			"byteLength":192,
			"byteOffset":18864,
			"target":34962
		},
		{
			"buffer":0,
			"byteLength":72,
			"byteOffset":19056,
			"target":34963
		}
	],
	"samplers":[
		{
			"magFilter":9728,
			"minFilter":9984
		}
	],
	"buffers":[
		{
			"byteLength":19128,
			"uri":"sm_meda_terrain.bin"
		}
	]
}
