{
	"asset":{
		"generator":"Khronos glTF Blender I/O v4.3.47",
		"version":"2.0"
	},
	"extensionsUsed":[
		"KHR_materials_specular"
	],
	"scene":0,
	"scenes":[
		{
			"name":"Scene",
			"nodes":[
				0,
				1
			]
		}
	],
	"nodes":[
		{
			"mesh":0,
			"name":"Terrain",
			"translation":[
				0.003464207984507084,
				0,
				0.11272488534450531
			]
		},
		{
			"mesh":1,
			"name":"Walls",
			"translation":[
				-0.009624467231333256,
				-4.865396976470947,
				-0.09454865753650665
			]
		}
	],
	"materials":[
		{
			"doubleSided":true,
			"extensions":{
				"KHR_materials_specular":{
					"specularFactor":0
				}
			},
			"name":"Brush",
			"pbrMetallicRoughness":{
				"baseColorTexture":{
					"index":0
				},
				"metallicFactor":0
			}
		},
		{
			"doubleSided":true,
			"extensions":{
				"KHR_materials_specular":{
					"specularFactor":0
				}
			},
			"name":"Grass",
			"pbrMetallicRoughness":{
				"baseColorTexture":{
					"index":1
				},
				"metallicFactor":0
			}
		},
		{
			"doubleSided":true,
			"extensions":{
				"KHR_materials_specular":{
					"specularFactor":0
				}
			},
			"name":"Walls",
			"pbrMetallicRoughness":{
				"baseColorTexture":{
					"index":2
				},
				"metallicFactor":0
			}
		}
	],
	"meshes":[
		{
			"name":"Plane.012",
			"primitives":[
				{
					"attributes":{
						"POSITION":0,
						"NORMAL":1,
						"TEXCOORD_0":2
					},
					"indices":3,
					"material":0
				},
				{
					"attributes":{
						"POSITION":4,
						"NORMAL":5,
						"TEXCOORD_0":6
					},
					"indices":7,
					"material":1
				}
			]
		},
		{
			"name":"Cylinder",
			"primitives":[
				{
					"attributes":{
						"POSITION":8,
						"NORMAL":9,
						"TEXCOORD_0":10
					},
					"indices":11,
					"material":2
				}
			]
		}
	],
	"textures":[
		{
			"sampler":0,
			"source":0
		},
		{
			"sampler":0,
			"source":1
		},
		{
			"sampler":0,
			"source":2
		}
	],
	"images":[
		{
			"mimeType":"image/png",
			"name":"tex_brush_1",
			"uri":"textures/tex_brush_1.png"
		},
		{
			"mimeType":"image/png",
			"name":"tex_grass_1",
			"uri":"textures/tex_grass_1.png"
		},
		{
			"mimeType":"image/png",
			"name":"tex_stone_2",
			"uri":"textures/tex_stone_2.png"
		}
	],
	"accessors":[
		{
			"bufferView":0,
			"componentType":5126,
			"count":119,
			"max":[
				5.199634075164795,
				1.637853741645813,
				13.55329704284668
			],
			"min":[
				-10.87749195098877,
				-0.06484781205654144,
				-12.515043258666992
			],
			"type":"VEC3"
		},
		{
			"bufferView":1,
			"componentType":5126,
			"count":119,
			"type":"VEC3"
		},
		{
			"bufferView":2,
			"componentType":5126,
			"count":119,
			"type":"VEC2"
		},
		{
			"bufferView":3,
			"componentType":5123,
			"count":183,
			"type":"SCALAR"
		},
		{
			"bufferView":4,
			"componentType":5126,
			"count":308,
			"max":[
				16.132375717163086,
				5.98561954498291,
				13.613967895507812
			],
			"min":[
				-13.456117630004883,
				0.1437227576971054,
				-15.95296859741211
			],
			"type":"VEC3"
		},
		{
			"bufferView":5,
			"componentType":5126,
			"count":308,
			"type":"VEC3"
		},
		{
			"bufferView":6,
			"componentType":5126,
			"count":308,
			"type":"VEC2"
		},
		{
			"bufferView":7,
			"componentType":5123,
			"count":528,
			"type":"SCALAR"
		},
		{
			"bufferView":8,
			"componentType":5126,
			"count":96,
			"max":[
				15.87912368774414,
				13.795045852661133,
				13.457494735717773
			],
			"min":[
				-12.99782657623291,
				-1.2146943807601929,
				-15.419461250305176
			],
			"type":"VEC3"
		},
		{
			"bufferView":9,
			"componentType":5126,
			"count":96,
			"type":"VEC3"
		},
		{
			"bufferView":10,
			"componentType":5126,
			"count":96,
			"type":"VEC2"
		},
		{
			"bufferView":11,
			"componentType":5123,
			"count":144,
			"type":"SCALAR"
		}
	],
	"bufferViews":[
		{
			"buffer":0,
			"byteLength":1428,
			"byteOffset":0,
			"target":34962
		},
		{
			"buffer":0,
			"byteLength":1428,
			"byteOffset":1428,
			"target":34962
		},
		{
			"buffer":0,
			"byteLength":952,
			"byteOffset":2856,
			"target":34962
		},
		{
			"buffer":0,
			"byteLength":366,
			"byteOffset":3808,
			"target":34963
		},
		{
			"buffer":0,
			"byteLength":3696,
			"byteOffset":4176,
			"target":34962
		},
		{
			"buffer":0,
			"byteLength":3696,
			"byteOffset":7872,
			"target":34962
		},
		{
			"buffer":0,
			"byteLength":2464,
			"byteOffset":11568,
			"target":34962
		},
		{
			"buffer":0,
			"byteLength":1056,
			"byteOffset":14032,
			"target":34963
		},
		{
			"buffer":0,
			"byteLength":1152,
			"byteOffset":15088,
			"target":34962
		},
		{
			"buffer":0,
			"byteLength":1152,
			"byteOffset":16240,
			"target":34962
		},
		{
			"buffer":0,
			"byteLength":768,
			"byteOffset":17392,
			"target":34962
		},
		{
			"buffer":0,
			"byteLength":288,
			"byteOffset":18160,
			"target":34963
		}
	],
	"samplers":[
		{
			"magFilter":9728,
			"minFilter":9984
		}
	],
	"buffers":[
		{
			"byteLength":18448,
			"uri":"sm_meda_terrain.bin"
		}
	]
}
