<?xml version="1.0" encoding="UTF-8"?><svg id="Layer_2" xmlns="http://www.w3.org/2000/svg" viewBox="0 0 96.03 82.72"><g id="Layer_1-2"><path d="M48.74.01l20.5,3.13c.25.04.47.16.65.34l17.44,17.81c.18.18.3.42.34.68l8.36,22.63c.02.14-2.26,1.22-2.28,1.36l-6.04,23.43c-.06.4-.3.74-.64.92l-23.18,12.3c-1.16.61-3.34-1.31-2.49-2.34l13.14-13.07c.16-.19.26-.43.28-.68l4.85-22.3c.01-.11-.48-.88-.49-.99l-4.7-18.83c-.04-.31-.19-.59-.42-.79l-13.69-11.78s-.04-.03-.05-.04l-12.44-9.51c-1-.76-.36-2.44.86-2.25Z"/><path d="M47.01,9.72L33.64,1.13c-.38-.24-.85-.27-1.25-.06L11.87,11.67c-.27.14-.48.37-.6.65L2.98,31.34c-.04.1-.07.2-.09.31L.02,47.71c-.04.2-.03.41.03.61l5.52,20.3c.09.34.31.63.61.8l22.24,13.01c.19.11.41.17.63.17h22.16c.41,0,.79-.2,1.04-.54l9.05-12.76c.78-1.1-.34-2.57-1.55-2.03l-9.06,4.05c-.2.09-.43.13-.65.1l-19.52-2.22c-.25-.03-.48-.13-.67-.29l-11.66-9.88c-.19-.16-.33-.38-.41-.62l-3.98-12.65c-.09-.27-.09-.57,0-.84l7.99-24.81c.11-.33.33-.61.63-.77l11.47-6.15c.16-.09.33-.14.51-.15l7.65-.47,4.37-.35c1.24-.1,1.64-1.8.58-2.48Z"/><path d="M51.21,24.63h-6.19c-1.63,0-3.18.72-4.23,1.96l-5.21,6.13c-.85,1-1.32,2.28-1.32,3.6v1.29c0,1.51.61,2.95,1.7,4l4.88,4.72c1.04,1,2.42,1.56,3.86,1.56h6.61c1.44,0,2.82-.56,3.85-1.55l4.91-4.72c1.09-1.05,1.7-2.49,1.7-4v-2.29c0-1.45-.57-2.85-1.58-3.88l-5-5.12c-1.05-1.07-2.48-1.67-3.97-1.67Z"/><path d="M33.86,44.58l4.94,6.42,7.24,1.68c1.3.3,2.66.28,3.94-.07l8.74-2.37,3.46-3.52-1.88,5.39c-.37,1.07-1.19,1.92-2.25,2.34l-8.4,3.31c-1.05.41-2.21.43-3.27.04l-7.63-2.78c-1-.37-1.79-1.17-2.12-2.18l-2.76-8.27Z"/></g></svg>