{
	"asset":{
		"generator":"Khronos glTF Blender I/O v4.3.47",
		"version":"2.0"
	},
	"extensionsUsed":[
		"KHR_materials_specular",
		"KHR_materials_ior"
	],
	"scene":0,
	"scenes":[
		{
			"name":"Scene",
			"nodes":[
				2
			]
		}
	],
	"nodes":[
		{
			"mesh":0,
			"name":"dais",
			"scale":[
				0.3731870651245117,
				0.3731870651245117,
				0.3731870651245117
			],
			"translation":[
				0.06121087074279785,
				1.3485344648361206,
				0.30580973625183105
			]
		},
		{
			"mesh":1,
			"name":"symbol",
			"rotation":[
				0.4195484519004822,
				0.042717259377241135,
				-0.02202712744474411,
				0.9064596891403198
			],
			"scale":[
				0.29020750522613525,
				0.29020747542381287,
				0.29020747542381287
			],
			"translation":[
				0.009624958038330078,
				2.8385486602783203,
				-0.11802664399147034
			]
		},
		{
			"children":[
				0,
				1
			],
			"mesh":2,
			"name":"monolith"
		}
	],
	"materials":[
		{
			"doubleSided":true,
			"extensions":{
				"KHR_materials_specular":{
					"specularFactor":0
				},
				"KHR_materials_ior":{
					"ior":1.4500000476837158
				}
			},
			"name":"Stone",
			"pbrMetallicRoughness":{
				"baseColorTexture":{
					"index":0
				},
				"metallicFactor":0
			}
		}
	],
	"meshes":[
		{
			"name":"Plane.002",
			"primitives":[
				{
					"attributes":{
						"POSITION":0,
						"NORMAL":1,
						"TEXCOORD_0":2
					},
					"indices":3,
					"material":0
				}
			]
		},
		{
			"name":"Plane.003",
			"primitives":[
				{
					"attributes":{
						"POSITION":4,
						"NORMAL":5,
						"TEXCOORD_0":6
					},
					"indices":7,
					"material":0
				}
			]
		},
		{
			"name":"Cube",
			"primitives":[
				{
					"attributes":{
						"POSITION":8,
						"NORMAL":9,
						"TEXCOORD_0":10
					},
					"indices":11,
					"material":0
				}
			]
		}
	],
	"textures":[
		{
			"sampler":0,
			"source":0
		}
	],
	"images":[
		{
			"mimeType":"image/png",
			"name":"tex_stone_1",
			"uri":"textures/tex_stone_1.png"
		}
	],
	"accessors":[
		{
			"bufferView":0,
			"componentType":5126,
			"count":419,
			"max":[
				1.1381850242614746,
				0.1519201248884201,
				1.0302025079727173
			],
			"min":[
				-1.1087379455566406,
				-3.651653289794922,
				-1.108329176902771
			],
			"type":"VEC3"
		},
		{
			"bufferView":1,
			"componentType":5126,
			"count":419,
			"type":"VEC3"
		},
		{
			"bufferView":2,
			"componentType":5126,
			"count":419,
			"type":"VEC2"
		},
		{
			"bufferView":3,
			"componentType":5123,
			"count":666,
			"type":"SCALAR"
		},
		{
			"bufferView":4,
			"componentType":5126,
			"count":322,
			"max":[
				1.5952701568603516,
				0.7441693544387817,
				1.1875559091567993
			],
			"min":[
				-1.6350069046020508,
				-1.1880145072937012,
				-1.350939393043518
			],
			"type":"VEC3"
		},
		{
			"bufferView":5,
			"componentType":5126,
			"count":322,
			"type":"VEC3"
		},
		{
			"bufferView":6,
			"componentType":5126,
			"count":322,
			"type":"VEC2"
		},
		{
			"bufferView":7,
			"componentType":5123,
			"count":576,
			"type":"SCALAR"
		},
		{
			"bufferView":8,
			"componentType":5126,
			"count":258,
			"max":[
				0.890128493309021,
				3.933971405029297,
				0.050536155700683594
			],
			"min":[
				-0.9131171703338623,
				-0.0838475227355957,
				-0.6671558618545532
			],
			"type":"VEC3"
		},
		{
			"bufferView":9,
			"componentType":5126,
			"count":258,
			"type":"VEC3"
		},
		{
			"bufferView":10,
			"componentType":5126,
			"count":258,
			"type":"VEC2"
		},
		{
			"bufferView":11,
			"componentType":5123,
			"count":396,
			"type":"SCALAR"
		}
	],
	"bufferViews":[
		{
			"buffer":0,
			"byteLength":5028,
			"byteOffset":0,
			"target":34962
		},
		{
			"buffer":0,
			"byteLength":5028,
			"byteOffset":5028,
			"target":34962
		},
		{
			"buffer":0,
			"byteLength":3352,
			"byteOffset":10056,
			"target":34962
		},
		{
			"buffer":0,
			"byteLength":1332,
			"byteOffset":13408,
			"target":34963
		},
		{
			"buffer":0,
			"byteLength":3864,
			"byteOffset":14740,
			"target":34962
		},
		{
			"buffer":0,
			"byteLength":3864,
			"byteOffset":18604,
			"target":34962
		},
		{
			"buffer":0,
			"byteLength":2576,
			"byteOffset":22468,
			"target":34962
		},
		{
			"buffer":0,
			"byteLength":1152,
			"byteOffset":25044,
			"target":34963
		},
		{
			"buffer":0,
			"byteLength":3096,
			"byteOffset":26196,
			"target":34962
		},
		{
			"buffer":0,
			"byteLength":3096,
			"byteOffset":29292,
			"target":34962
		},
		{
			"buffer":0,
			"byteLength":2064,
			"byteOffset":32388,
			"target":34962
		},
		{
			"buffer":0,
			"byteLength":792,
			"byteOffset":34452,
			"target":34963
		}
	],
	"samplers":[
		{
			"magFilter":9728,
			"minFilter":9984
		}
	],
	"buffers":[
		{
			"byteLength":35244,
			"uri":"sm_altar.bin"
		}
	]
}
