<?xml version="1.0" encoding="UTF-8"?><svg id="Layer_2" xmlns="http://www.w3.org/2000/svg" viewBox="0 0 236.14 277.28"><defs><style>.cls-1{font-family:Bridgnorth-Bold, Bridgnorth;font-size:155.32px;font-weight:700;}.cls-1,.cls-2{fill:#231f20;}.cls-3{fill:#fff;}.cls-4{fill:#999;}</style></defs><g id="Layer_1-2"><path class="cls-2" d="M0,103.74v139.99C0,244.27.01,244.8.03,245.33c.93,21.65,22.33,36.49,43.21,30.68l47.61-13.24c17.81-4.95,36.62-4.95,54.43,0l47.61,13.24c20.88,5.8,42.27-9.04,43.21-30.68.02-.53.03-1.07.03-1.6V103.74c0-.54-.01-1.07-.03-1.6-.92-21.43-21.83-36.31-42.63-31.09l-53.02,13.3c-14.69,3.69-30.07,3.69-44.77,0l-53.02-13.3C21.86,65.83.96,80.72.03,102.14.01,102.67,0,103.21,0,103.74Z"/><path class="cls-4" d="M14.02,112.92v121.44c0,16.77,13.22,30.36,29.52,30.36l59.61-4.31c8.59-.62,17.21-.64,25.8-.05l63.67,4.36c16.3,0,29.52-13.59,29.52-30.36v-121.44c0-16.77-13.22-30.36-29.52-30.36l-57.44,3.5c-11.45.7-22.93.7-34.38,0l-57.26-3.5c-16.3,0-29.52,13.59-29.52,30.36Z"/><path class="cls-2" d="M0,33.74v139.99c0,.54.01,1.07.03,1.6.93,21.65,22.33,36.49,43.21,30.68l47.61-13.24c17.81-4.95,36.62-4.95,54.43,0l47.61,13.24c20.88,5.8,42.27-9.04,43.21-30.68.02-.53.03-1.07.03-1.6V33.74c0-.54-.01-1.07-.03-1.6-.92-21.43-21.83-36.31-42.63-31.09l-53.02,13.3c-14.69,3.69-30.07,3.69-44.77,0L42.66,1.05C21.86-4.17.96,10.72.03,32.14c-.02.53-.03,1.07-.03,1.6Z"/><path class="cls-3" d="M14.02,42.92v121.44c0,16.77,13.22,30.36,29.52,30.36l59.61-4.31c8.59-.62,17.21-.64,25.8-.05l63.67,4.36c16.3,0,29.52-13.59,29.52-30.36V42.92c0-16.77-13.22-30.36-29.52-30.36l-57.44,3.5c-11.45.7-22.93.7-34.38,0l-57.26-3.5c-16.3,0-29.52,13.59-29.52,30.36Z"/><text class="cls-1" transform="translate(91.9 156.84)"><tspan x="0" y="0">f</tspan></text></g></svg>