{
    "asset" : {
        "generator" : "Khronos glTF Blender I/O v1.5.17",
        "version" : "2.0"
    },
    "scene" : 0,
    "scenes" : [
        {
            "name" : "Scene",
            "nodes" : [
                0
            ]
        }
    ],
    "nodes" : [
        {
            "mesh" : 0,
            "name" : "Walls",
            "rotation" : [
                0,
                0.7660443782806396,
                0,
                0.6427876949310303
            ],
            "scale" : [
                0.5,
                77.68000030517578,
                0.5
            ],
            "translation" : [
                0.19959600269794464,
                77.41284942626953,
                0.017723100259900093
            ]
        }
    ],
    "materials" : [
        {
            "doubleSided" : true,
            "name" : "AAP_Palette",
            "pbrMetallicRoughness" : {
                "metallicFactor" : 0,
                "roughnessFactor" : 0.5
            }
        }
    ],
    "meshes" : [
        {
            "name" : "Mesh_0.003",
            "primitives" : [
                {
                    "attributes" : {
                        "POSITION" : 0,
                        "NORMAL" : 1,
                        "TEXCOORD_0" : 2
                    },
                    "indices" : 3,
                    "material" : 0
                }
            ]
        }
    ],
    "accessors" : [
        {
            "bufferView" : 0,
            "componentType" : 5126,
            "count" : 590,
            "max" : [
                402.7750244140625,
                1.3874969482421875,
                402.7750244140625
            ],
            "min" : [
                -412.797119140625,
                -2.668750047683716,
                -402.7750244140625
            ],
            "type" : "VEC3"
        },
        {
            "bufferView" : 1,
            "componentType" : 5126,
            "count" : 590,
            "type" : "VEC3"
        },
        {
            "bufferView" : 2,
            "componentType" : 5126,
            "count" : 590,
            "type" : "VEC2"
        },
        {
            "bufferView" : 3,
            "componentType" : 5123,
            "count" : 606,
            "type" : "SCALAR"
        }
    ],
    "bufferViews" : [
        {
            "buffer" : 0,
            "byteLength" : 7080,
            "byteOffset" : 0
        },
        {
            "buffer" : 0,
            "byteLength" : 7080,
            "byteOffset" : 7080
        },
        {
            "buffer" : 0,
            "byteLength" : 4720,
            "byteOffset" : 14160
        },
        {
            "buffer" : 0,
            "byteLength" : 1212,
            "byteOffset" : 18880
        }
    ],
    "buffers" : [
        {
            "byteLength" : 20092,
            "uri" : "crater_walls.bin"
        }
    ]
}
