{
    "asset" : {
        "generator" : "Khronos glTF Blender I/O v1.5.17",
        "version" : "2.0"
    },
    "scene" : 0,
    "scenes" : [
        {
            "name" : "Scene",
            "nodes" : [
                0,
                1
            ]
        }
    ],
    "nodes" : [
        {
            "mesh" : 0,
            "name" : "MyLowPolyTerrain2",
            "scale" : [
                0.5,
                1,
                0.5
            ],
            "translation" : [
                0,
                3.373302459716797,
                0
            ]
        },
        {
            "mesh" : 1,
            "name" : "Cylinder",
            "scale" : [
                -140.26913452148438,
                -140.26913452148438,
                -140.26913452148438
            ]
        }
    ],
    "materials" : [
        {
            "doubleSided" : true,
            "name" : "Brush",
            "pbrMetallicRoughness" : {}
        },
        {
            "doubleSided" : true,
            "emissiveFactor" : [
                1,
                1,
                1
            ],
            "emissiveTexture" : {
                "index" : 0
            },
            "name" : "Grass",
            "pbrMetallicRoughness" : {}
        },
        {
            "doubleSided" : true,
            "name" : "Material.009",
            "pbrMetallicRoughness" : {}
        }
    ],
    "meshes" : [
        {
            "name" : "Plane.012",
            "primitives" : [
                {
                    "attributes" : {
                        "POSITION" : 0,
                        "NORMAL" : 1,
                        "TEXCOORD_0" : 2
                    },
                    "indices" : 3,
                    "material" : 0
                },
                {
                    "attributes" : {
                        "POSITION" : 4,
                        "NORMAL" : 5,
                        "TEXCOORD_0" : 6
                    },
                    "indices" : 7,
                    "material" : 1
                }
            ]
        },
        {
            "name" : "Cylinder",
            "primitives" : [
                {
                    "attributes" : {
                        "POSITION" : 8,
                        "NORMAL" : 9,
                        "TEXCOORD_0" : 10
                    },
                    "indices" : 11,
                    "material" : 2
                }
            ]
        }
    ],
    "textures" : [
        {
            "sampler" : 0,
            "source" : 0
        }
    ],
    "images" : [
        {
            "mimeType" : "image/png",
            "name" : "tex_grass_1",
            "uri" : "tex_grass_1.png"
        }
    ],
    "accessors" : [
        {
            "bufferView" : 0,
            "componentType" : 5126,
            "count" : 121,
            "max" : [
                294.7233581542969,
                -1.4459353685379028,
                290.8588562011719
            ],
            "min" : [
                48.17829895019531,
                -5.8916192054748535,
                -108.90302276611328
            ],
            "type" : "VEC3"
        },
        {
            "bufferView" : 1,
            "componentType" : 5126,
            "count" : 121,
            "type" : "VEC3"
        },
        {
            "bufferView" : 2,
            "componentType" : 5126,
            "count" : 121,
            "type" : "VEC2"
        },
        {
            "bufferView" : 3,
            "componentType" : 5123,
            "count" : 183,
            "type" : "SCALAR"
        },
        {
            "bufferView" : 4,
            "componentType" : 5126,
            "count" : 336,
            "max" : [
                462.37860107421875,
                14.340888023376465,
                291.7892150878906
            ],
            "min" : [
                8.634663581848145,
                -5.8916192054748535,
                -161.62413024902344
            ],
            "type" : "VEC3"
        },
        {
            "bufferView" : 5,
            "componentType" : 5126,
            "count" : 336,
            "type" : "VEC3"
        },
        {
            "bufferView" : 6,
            "componentType" : 5126,
            "count" : 336,
            "type" : "VEC2"
        },
        {
            "bufferView" : 7,
            "componentType" : 5123,
            "count" : 528,
            "type" : "SCALAR"
        },
        {
            "bufferView" : 8,
            "componentType" : 5126,
            "count" : 96,
            "max" : [
                -0.0685446634888649,
                0.0528990812599659,
                0.539402186870575
            ],
            "min" : [
                -1.6381651163101196,
                -0.3550313711166382,
                -1.0302181243896484
            ],
            "type" : "VEC3"
        },
        {
            "bufferView" : 9,
            "componentType" : 5126,
            "count" : 96,
            "type" : "VEC3"
        },
        {
            "bufferView" : 10,
            "componentType" : 5126,
            "count" : 96,
            "type" : "VEC2"
        },
        {
            "bufferView" : 11,
            "componentType" : 5123,
            "count" : 144,
            "type" : "SCALAR"
        }
    ],
    "bufferViews" : [
        {
            "buffer" : 0,
            "byteLength" : 1452,
            "byteOffset" : 0
        },
        {
            "buffer" : 0,
            "byteLength" : 1452,
            "byteOffset" : 1452
        },
        {
            "buffer" : 0,
            "byteLength" : 968,
            "byteOffset" : 2904
        },
        {
            "buffer" : 0,
            "byteLength" : 366,
            "byteOffset" : 3872
        },
        {
            "buffer" : 0,
            "byteLength" : 4032,
            "byteOffset" : 4240
        },
        {
            "buffer" : 0,
            "byteLength" : 4032,
            "byteOffset" : 8272
        },
        {
            "buffer" : 0,
            "byteLength" : 2688,
            "byteOffset" : 12304
        },
        {
            "buffer" : 0,
            "byteLength" : 1056,
            "byteOffset" : 14992
        },
        {
            "buffer" : 0,
            "byteLength" : 1152,
            "byteOffset" : 16048
        },
        {
            "buffer" : 0,
            "byteLength" : 1152,
            "byteOffset" : 17200
        },
        {
            "buffer" : 0,
            "byteLength" : 768,
            "byteOffset" : 18352
        },
        {
            "buffer" : 0,
            "byteLength" : 288,
            "byteOffset" : 19120
        }
    ],
    "samplers" : [
        {
            "magFilter" : 9728,
            "minFilter" : 9984
        }
    ],
    "buffers" : [
        {
            "byteLength" : 19408,
            "uri" : "sm_meda_terrain.bin"
        }
    ]
}
