{
    "asset" : {
        "generator" : "Khronos glTF Blender I/O v1.5.17",
        "version" : "2.0"
    },
    "scene" : 0,
    "scenes" : [
        {
            "name" : "Scene",
            "nodes" : [
                0
            ]
        }
    ],
    "nodes" : [
        {
            "mesh" : 0,
            "name" : "MyLowPolyTerrain2",
            "scale" : [
                0.5,
                1,
                0.5
            ],
            "translation" : [
                0,
                3.373302459716797,
                0
            ]
        }
    ],
    "materials" : [
        {
            "doubleSided" : true,
            "name" : "AAP_Palette",
            "pbrMetallicRoughness" : {
                "metallicFactor" : 0,
                "roughnessFactor" : 0.5
            }
        }
    ],
    "meshes" : [
        {
            "name" : "Plane.012",
            "primitives" : [
                {
                    "attributes" : {
                        "POSITION" : 0,
                        "NORMAL" : 1,
                        "TEXCOORD_0" : 2
                    },
                    "indices" : 3,
                    "material" : 0
                }
            ]
        }
    ],
    "accessors" : [
        {
            "bufferView" : 0,
            "componentType" : 5126,
            "count" : 2115,
            "max" : [
                500,
                104.99016571044922,
                500
            ],
            "min" : [
                -500,
                -5.8916192054748535,
                -507.04608154296875
            ],
            "type" : "VEC3"
        },
        {
            "bufferView" : 1,
            "componentType" : 5126,
            "count" : 2115,
            "type" : "VEC3"
        },
        {
            "bufferView" : 2,
            "componentType" : 5126,
            "count" : 2115,
            "type" : "VEC2"
        },
        {
            "bufferView" : 3,
            "componentType" : 5123,
            "count" : 3270,
            "type" : "SCALAR"
        }
    ],
    "bufferViews" : [
        {
            "buffer" : 0,
            "byteLength" : 25380,
            "byteOffset" : 0
        },
        {
            "buffer" : 0,
            "byteLength" : 25380,
            "byteOffset" : 25380
        },
        {
            "buffer" : 0,
            "byteLength" : 16920,
            "byteOffset" : 50760
        },
        {
            "buffer" : 0,
            "byteLength" : 6540,
            "byteOffset" : 67680
        }
    ],
    "buffers" : [
        {
            "byteLength" : 74220,
            "uri" : "terrain.bin"
        }
    ]
}
